<?xml version="1.0" encoding="UTF-8" standalone="no"?>
<!-- Created with Inkscape (http://www.inkscape.org/) -->

<svg
   width="481.59879"
   height="154.46268"
   viewBox="0 0 481.59879 154.46268"
   version="1.1"
   id="svg5"
   inkscape:version="1.1.2 (0a00cf5339, 2022-02-04)"
   sodipodi:docname="box_pyobject.svg"
   inkscape:export-filename="/home/sudo-panda/Pictures/pyobject.png"
   inkscape:export-xdpi="34.133335"
   inkscape:export-ydpi="34.133335"
   xmlns:inkscape="http://www.inkscape.org/namespaces/inkscape"
   xmlns:sodipodi="http://sodipodi.sourceforge.net/DTD/sodipodi-0.dtd"
   xmlns:xlink="http://www.w3.org/1999/xlink"
   xmlns="http://www.w3.org/2000/svg"
   xmlns:svg="http://www.w3.org/2000/svg">
  <sodipodi:namedview
     id="namedview7"
     pagecolor="#505050"
     bordercolor="#eeeeee"
     borderopacity="1"
     inkscape:pageshadow="0"
     inkscape:pageopacity="0"
     inkscape:pagecheckerboard="0"
     inkscape:document-units="px"
     showgrid="false"
     inkscape:zoom="1"
     inkscape:cx="181"
     inkscape:cy="159"
     inkscape:window-width="1920"
     inkscape:window-height="1011"
     inkscape:window-x="1920"
     inkscape:window-y="32"
     inkscape:window-maximized="1"
     inkscape:current-layer="layer2"
     width="256px"
     scale-x="1"
     showguides="true"
     inkscape:guide-bbox="true"
     height="215px"
     fit-margin-top="0"
     fit-margin-left="0"
     fit-margin-right="0"
     fit-margin-bottom="0">
    <sodipodi:guide
       position="-134.47908,179.99652"
       orientation="0,720"
       id="guide263" />
    <sodipodi:guide
       position="585.52093,179.99652"
       orientation="256,0"
       id="guide265" />
    <sodipodi:guide
       position="-134.47908,-76.003482"
       orientation="-256,0"
       id="guide269" />
  </sodipodi:namedview>
  <defs
     id="defs2">
    <linearGradient
       inkscape:collect="always"
       id="linearGradient147567">
      <stop
         style="stop-color:#6dd5ed;stop-opacity:1"
         offset="0"
         id="stop147563" />
      <stop
         style="stop-color:#2193b0;stop-opacity:1"
         offset="1"
         id="stop147565" />
    </linearGradient>
    <linearGradient
       inkscape:collect="always"
       id="linearGradient119922">
      <stop
         style="stop-color:#6d4b2d;stop-opacity:1"
         offset="0"
         id="stop119918" />
      <stop
         style="stop-color:#885d38;stop-opacity:1"
         offset="1"
         id="stop119920" />
    </linearGradient>
    <linearGradient
       inkscape:collect="always"
       id="linearGradient27482">
      <stop
         style="stop-color:#8a6743;stop-opacity:1"
         offset="0"
         id="stop27478" />
      <stop
         style="stop-color:#97683e;stop-opacity:1"
         offset="1"
         id="stop27480" />
    </linearGradient>
    <linearGradient
       inkscape:collect="always"
       xlink:href="#linearGradient119922"
       id="linearGradient147162"
       gradientUnits="userSpaceOnUse"
       gradientTransform="matrix(0.20525349,0,0,0.20525349,415.38065,29.54472)"
       x1="227.25362"
       y1="354.00638"
       x2="227.25362"
       y2="218.08005" />
    <linearGradient
       inkscape:collect="always"
       xlink:href="#linearGradient27482"
       id="linearGradient147164"
       gradientUnits="userSpaceOnUse"
       gradientTransform="matrix(0.20525349,0,0,0.20525349,415.38065,29.54472)"
       x1="479.86731"
       y1="362.10229"
       x2="479.86731"
       y2="221.48709" />
    <radialGradient
       inkscape:collect="always"
       xlink:href="#linearGradient147567"
       id="radialGradient147569"
       cx="590.41718"
       cy="119.28486"
       fx="590.41718"
       fy="119.28486"
       r="73.727654"
       gradientUnits="userSpaceOnUse"
       gradientTransform="matrix(0.74392759,0,0,0.74392759,151.18955,-11.454438)" />
  </defs>
  <g
     inkscape:groupmode="layer"
     id="layer7"
     inkscape:label="box_back"
     transform="translate(-134.47907,-25.533843)">
    <path
       style="fill:url(#linearGradient147162);fill-opacity:1;stroke:#454545;stroke-width:2.05253;stroke-linecap:butt;stroke-linejoin:round;stroke-miterlimit:4;stroke-dasharray:none;stroke-opacity:1"
       d="m 440.39269,82.563255 49.31955,20.432395 V 64.045289 l -49.31955,18.517966"
       id="path6272-0" />
    <path
       style="fill:url(#linearGradient147164);fill-opacity:1;stroke:#363636;stroke-width:2.05253;stroke-linecap:butt;stroke-linejoin:round;stroke-miterlimit:4;stroke-dasharray:none;stroke-opacity:1"
       d="m 489.71224,64.045289 49.0255,19.046359 -49.0255,19.904002 z"
       id="path6274-9" />
  </g>
  <g
     inkscape:groupmode="layer"
     id="layer8"
     inkscape:label="flaps_open_back"
     transform="translate(-134.47907,-25.533843)" />
  <g
     inkscape:groupmode="layer"
     id="layer9"
     inkscape:label="float"
     transform="translate(-134.47907,-25.533843)">
    <g
       id="g169567"
       transform="matrix(0.52734375,0,0,0.52734375,-56.62228,69.009494)">
      <circle
         style="fill:url(#radialGradient147569);fill-opacity:1;stroke:#020202;stroke-width:5;stroke-linejoin:round;stroke-miterlimit:4;stroke-dasharray:none;stroke-opacity:1"
         id="path147419"
         cx="590.41718"
         cy="77.284859"
         r="52.988216" />
      <g
         aria-label="float"
         id="text150905"
         style="font-weight:bold;font-size:32px;line-height:1.25;font-family:'JetBrains Mono';-inkscape-font-specification:'JetBrains Mono Bold';fill:#001a44">
        <path
           d="m 549.24927,88.804855 v -12.032 h -4.832 v -3.616 h 4.832 v -2.656 q 0,-2.304 1.536,-3.68 1.536,-1.376 4.064,-1.376 h 5.152 v 3.52 h -5.056 q -0.768,0 -1.248,0.448 -0.448,0.416 -0.448,1.152 v 2.592 h 6.752 v 3.616 h -6.752 v 12.032 z"
           id="path169531" />
        <path
           d="m 574.33722,88.804855 q -2.624,0 -4.224,-1.568 -1.568,-1.568 -1.568,-4.128 v -14.048 h -5.792 v -3.616 h 9.792 v 17.568 q 0,0.992 0.544,1.6 0.576,0.576 1.536,0.576 h 5.152 v 3.616 z"
           id="path169533" />
        <path
           d="m 590.68917,89.092855 q -3.392,0 -5.376,-1.856 -1.984,-1.888 -1.984,-5.056 v -4.352 q 0,-3.168 1.984,-5.024 1.984,-1.888 5.376,-1.888 3.392,0 5.376,1.888 1.984,1.856 1.984,4.992 v 4.384 q 0,3.168 -1.984,5.056 -1.984,1.856 -5.376,1.856 z m 0,-3.488 q 1.6,0 2.464,-0.864 0.896,-0.896 0.896,-2.56 v -4.352 q 0,-1.664 -0.896,-2.528 -0.864,-0.896 -2.464,-0.896 -1.6,0 -2.496,0.896 -0.864,0.864 -0.864,2.528 v 4.352 q 0,1.664 0.864,2.56 0.896,0.864 2.496,0.864 z"
           id="path169535" />
        <path
           d="m 607.93712,89.124855 q -2.72,0 -4.288,-1.408 -1.568,-1.44 -1.568,-3.904 0,-2.592 1.792,-4 1.792,-1.44 4.992,-1.44 h 4.224 v -1.472 q 0,-1.28 -0.832,-1.984 -0.832,-0.704 -2.336,-0.704 -1.376,0 -2.272,0.576 -0.864,0.576 -0.96,1.536 h -3.808 q 0.128,-2.464 2.08,-3.936 1.984,-1.504 5.088,-1.504 3.264,0 5.152,1.6 1.888,1.6 1.888,4.384 v 11.936 h -3.872 v -2.976 h -0.064 q -0.352,1.536 -1.728,2.432 -1.376,0.864 -3.488,0.864 z m 1.312,-2.976 q 1.696,0 2.752,-0.832 1.088,-0.864 1.088,-2.272 v -2.112 h -4.128 q -1.344,0 -2.112,0.704 -0.768,0.672 -0.768,1.856 0,1.248 0.832,1.952 0.864,0.704 2.336,0.704 z"
           id="path169537" />
        <path
           d="m 631.00907,88.804855 q -2.464,0 -3.936,-1.408 -1.44,-1.44 -1.44,-3.872 v -8.704 h -4.768 v -3.616 h 4.768 v -4.96 h 4.032 v 4.96 h 6.752 v 3.616 h -6.752 v 8.608 q 0,0.768 0.416,1.28 0.448,0.48 1.216,0.48 h 4.8 v 3.616 z"
           id="path169539" />
      </g>
    </g>
  </g>
  <g
     inkscape:label="box_sides"
     inkscape:groupmode="layer"
     id="layer1"
     transform="translate(-134.47907,-25.533843)">
    <path
       style="fill:#a67c52;fill-opacity:1;stroke:#000000;stroke-width:2.05253;stroke-linecap:butt;stroke-linejoin:round;stroke-miterlimit:4;stroke-dasharray:none;stroke-opacity:1"
       d="m 489.71224,102.99565 v 56.66682 l 45.24784,-19.18965 c 2.49003,-1.056 3.75918,-3.6332 3.77766,-5.94788 V 83.091648 Z"
       id="path54-3"
       sodipodi:nodetypes="ccsscc" />
    <path
       style="fill:#8c6238;fill-opacity:1;stroke:#000000;stroke-width:2.05253;stroke-linecap:butt;stroke-linejoin:round;stroke-miterlimit:4;stroke-dasharray:none;stroke-opacity:1"
       d="m 489.71224,102.99565 v 56.66682 l -45.44446,-19.50103 c -3.19914,-1.37282 -3.87509,-4.29254 -3.87509,-4.93195 V 82.563255 Z"
       id="path4179-6"
       sodipodi:nodetypes="ccsscc" />
  </g>
  <g
     inkscape:groupmode="layer"
     id="layer5"
     inkscape:label="label"
     transform="translate(-134.47907,-25.533843)">
    <g
       id="layer5-0"
       inkscape:label="label"
       transform="matrix(0.52734375,0,0,0.52734375,422.06522,38.025729)"
       style="display:inline">
      <g
         aria-label="PyObject"
         id="text134125-7-6"
         style="font-size:74.6667px;line-height:1.25"
         transform="matrix(0.4094064,0,0,0.4094064,-13.490852,-1.490885)">
        <path
           d="m 160.93846,357.75787 h 23.29689 q 10.39063,0 15.93229,4.63021 5.57813,4.59375 5.57813,13.125 0,8.56772 -5.57813,13.19793 -5.54166,4.59375 -15.93229,4.59375 h -9.26043 v 18.88543 h -14.03646 z m 14.03646,10.17188 v 15.20313 h 7.76563 q 4.08334,0 6.3073,-1.96875 2.22396,-2.00521 2.22396,-5.65105 0,-3.64583 -2.22396,-5.61458 -2.22396,-1.96875 -6.3073,-1.96875 z"
           style="font-weight:bold;-inkscape-font-specification:'sans-serif Bold';fill:#ffffff"
           id="path146731-2" />
        <path
           d="m 211.10515,371.35683 h 13.05209 l 10.97396,27.70835 9.33334,-27.70835 h 13.05209 l -17.17188,44.69794 q -2.58855,6.81771 -6.05209,9.51563 -3.42708,2.73438 -9.07813,2.73438 h -7.54688 v -8.56772 h 4.08334 q 3.31771,0 4.8125,-1.05729 1.53125,-1.05729 2.36979,-3.79167 l 0.36459,-1.13021 z"
           style="font-weight:bold;-inkscape-font-specification:'sans-serif Bold';fill:#ffffff"
           id="path146733-6" />
        <path
           d="m 290.58435,366.94537 q -6.41667,0 -9.95313,4.73959 -3.53646,4.73958 -3.53646,13.34375 0,8.56772 3.53646,13.3073 3.53646,4.73959 9.95313,4.73959 6.45313,0 9.98959,-4.73959 3.53646,-4.73958 3.53646,-13.3073 0,-8.60417 -3.53646,-13.34375 -3.53646,-4.73959 -9.98959,-4.73959 z m 0,-10.17188 q 13.12501,0 20.56251,7.51042 7.4375,7.51042 7.4375,20.7448 0,13.19793 -7.4375,20.70835 -7.4375,7.51042 -20.56251,7.51042 -13.08855,0 -20.56251,-7.51042 -7.4375,-7.51042 -7.4375,-20.70835 0,-13.23438 7.4375,-20.7448 7.47396,-7.51042 20.56251,-7.51042 z"
           style="font-weight:bold;-inkscape-font-specification:'sans-serif Bold';fill:#ffffff"
           id="path146735-1" />
        <path
           d="m 350.33958,403.76831 q 4.19271,0 6.38021,-3.0625 2.22396,-3.06251 2.22396,-8.89584 0,-5.83334 -2.22396,-8.89584 -2.1875,-3.0625 -6.38021,-3.0625 -4.19271,0 -6.45313,3.09896 -2.22396,3.0625 -2.22396,8.85938 0,5.79688 2.22396,8.89584 2.26042,3.0625 6.45313,3.0625 z M 341.66249,377.336 q 2.69792,-3.57292 5.97917,-5.25 3.28126,-1.71354 7.54688,-1.71354 7.54688,0 12.39584,6.01563 4.84896,5.97916 4.84896,15.42188 0,9.44271 -4.84896,15.45834 -4.84896,5.97917 -12.39584,5.97917 -4.26562,0 -7.54688,-1.67709 -3.28125,-1.71354 -5.97917,-5.28646 v 5.90626 h -13.05208 v -56.7292 h 13.05208 z"
           style="font-weight:bold;-inkscape-font-specification:'sans-serif Bold';fill:#ffffff"
           id="path146737-8" />
        <path
           d="m 382.05836,371.35683 h 13.05209 v 40.10419 q 0,8.20313 -3.9375,12.50521 -3.93751,4.33855 -11.41147,4.33855 h -6.45313 v -8.56772 h 2.26042 q 3.71875,0 5.10417,-1.67708 1.38542,-1.67708 1.38542,-6.59896 z m 0,-15.89584 h 13.05209 v 10.64584 h -13.05209 z"
           style="font-weight:bold;-inkscape-font-specification:'sans-serif Bold';fill:#ffffff"
           id="path146739-7" />
        <path
           d="m 448.41256,391.66413 v 3.71876 h -30.51564 q 0.47396,4.59375 3.31771,6.89062 2.84375,2.29688 7.94792,2.29688 4.11979,0 8.42188,-1.20313 4.33854,-1.23958 8.89584,-3.71875 v 10.06251 q -4.63021,1.75 -9.26042,2.625 -4.63022,0.91146 -9.26043,0.91146 -11.08333,0 -17.2448,-5.61459 -6.125,-5.65104 -6.125,-15.82292 0,-9.98959 6.01563,-15.71355 6.05209,-5.72396 16.62501,-5.72396 9.625,0 15.38542,5.79688 5.79688,5.79687 5.79688,15.49479 z m -13.41667,-4.33854 q 0,-3.71875 -2.18751,-5.97917 -2.15104,-2.29688 -5.65104,-2.29688 -3.79167,0 -6.16146,2.15105 -2.36979,2.11458 -2.95313,6.125 z"
           style="font-weight:bold;-inkscape-font-specification:'sans-serif Bold';fill:#ffffff"
           id="path146741-9" />
        <path
           d="m 491.28756,372.63288 v 10.64583 q -2.66146,-1.82291 -5.35938,-2.69791 -2.66146,-0.875 -5.54167,-0.875 -5.46875,0 -8.53126,3.20833 -3.02604,3.17188 -3.02604,8.89584 0,5.72396 3.02604,8.93229 3.06251,3.17188 8.53126,3.17188 3.0625,0 5.79688,-0.91146 2.77083,-0.91146 5.10417,-2.69792 v 10.6823 q -3.06251,1.13021 -6.23438,1.67708 -3.13542,0.58334 -6.3073,0.58334 -11.04688,0 -17.28126,-5.65105 -6.23437,-5.6875 -6.23437,-15.78646 0,-10.09897 6.23437,-15.75001 6.23438,-5.6875 17.28126,-5.6875 3.20834,0 6.3073,0.58333 3.13542,0.54688 6.23438,1.67709 z"
           style="font-weight:bold;-inkscape-font-specification:'sans-serif Bold';fill:#ffffff"
           id="path146743-2" />
        <path
           d="m 516.8084,359.76308 v 11.59375 h 13.45313 v 9.33334 H 516.8084 v 17.31772 q 0,2.84375 1.13021,3.86458 1.13021,0.98438 4.48438,0.98438 h 6.70833 v 9.33334 h -11.19271 q -7.72917,0 -10.97396,-3.20834 -3.20834,-3.24479 -3.20834,-10.97396 v -17.31772 h -6.48959 v -9.33334 h 6.48959 v -11.59375 z"
           style="font-weight:bold;-inkscape-font-specification:'sans-serif Bold';fill:#ffffff"
           id="path146745-0" />
      </g>
    </g>
  </g>
  <g
     inkscape:groupmode="layer"
     id="layer6"
     inkscape:label="flaps_open_front"
     style="display:inline"
     transform="translate(-134.47907,-25.533843)" />
  <g
     inkscape:groupmode="layer"
     id="layer4"
     inkscape:label="flaps_closed"
     style="display:inline"
     transform="translate(-134.47907,-25.533843)">
    <path
       style="fill:#c69c6c;fill-opacity:1;stroke:#000000;stroke-width:2.03201;stroke-linecap:butt;stroke-linejoin:round;stroke-miterlimit:4;stroke-dasharray:none;stroke-opacity:1"
       d="m 440.07489,81.959223 25.1107,10.462782 48.07435,-19.367052 -24.3587,-9.428521 z"
       id="path120957"
       sodipodi:nodetypes="ccccc" />
    <path
       style="fill:#c69c6c;fill-opacity:1;stroke:#000000;stroke-width:2.03201;stroke-linecap:butt;stroke-linejoin:round;stroke-miterlimit:4;stroke-dasharray:none;stroke-opacity:1"
       d="m 465.43768,92.518935 23.71567,9.765275 48.53524,-19.704943 -24.17655,-9.427374 -48.07436,19.367042"
       id="path128696"
       sodipodi:nodetypes="ccccc" />
    <g
       id="layer6-2"
       inkscape:label="flaps_open"
       style="display:none"
       transform="translate(464)">
      <path
         style="fill:#c69c6c;fill-opacity:1;stroke:#000000;stroke-width:3.88921;stroke-linecap:butt;stroke-linejoin:miter;stroke-miterlimit:4;stroke-dasharray:none;stroke-opacity:1"
         d="M 128.15364,48.915824 221.04885,85.005617 250.97681,52.297273 155.52185,15.250065 Z"
         id="path10565-3" />
      <path
         style="fill:#c69c6c;fill-opacity:1;stroke:#000000;stroke-width:3.88921;stroke-linecap:butt;stroke-linejoin:round;stroke-miterlimit:4;stroke-dasharray:none;stroke-opacity:1"
         d="M 128.15364,48.915824 100.11792,15.917587 5.3304679,52.297273 34.701228,84.004344 Z"
         id="path10567-7" />
      <path
         style="fill:#c69c6c;fill-opacity:1;stroke:#000000;stroke-width:3.88921;stroke-linecap:butt;stroke-linejoin:round;stroke-miterlimit:4;stroke-dasharray:none;stroke-opacity:1"
         d="M 34.701228,84.004344 10.336849,118.71524 95.111544,158.43251 128.15364,122.72034 34.701228,84.004344"
         id="path10995-5" />
      <path
         style="fill:#c69c6c;fill-opacity:1;stroke:#000000;stroke-width:3.88921;stroke-linecap:butt;stroke-linejoin:miter;stroke-miterlimit:4;stroke-dasharray:none;stroke-opacity:1"
         d="m 128.15364,122.72034 33.0421,35.71217 L 246.3042,119.049 221.04885,85.005617 128.15364,122.72034"
         id="path11063-9" />
    </g>
  </g>
  <g
     inkscape:groupmode="layer"
     id="layer2"
     inkscape:label="arrow"
     transform="translate(-134.47907,-25.533843)">
    <path
       style="fill:#fdfffd;fill-opacity:1;stroke:#000000;stroke-width:2.21854;stroke-linecap:butt;stroke-linejoin:miter;stroke-miterlimit:4;stroke-dasharray:none;stroke-opacity:1"
       d="m 311.91629,107.51379 v 4.76011 h 89.12109 v 3.57009 l 13.18359,-5.95014 -13.18359,-5.95015 v 3.57009 z"
       id="path306"
       sodipodi:nodetypes="cccccccc" />
    <g
       aria-label="Box"
       id="text37381"
       style="font-size:40px;line-height:1.25;fill:#ffffff;fill-opacity:1;stroke:#000000;stroke-width:5.33333333;stroke-miterlimit:4;stroke-dasharray:none;stroke-opacity:1;paint-order:stroke fill markers"
       transform="matrix(0.5625,0,0,0.5625,157.57394,49.059807)">
      <path
         d="m 336.91906,69.973844 c 3.28,-0.68 6.16,-2.96 6.16,-6.84 0,-4.24 -3.64,-6.16 -8.64,-6.16 h -7.6 l -3.88,27.56 h 7.6 c 9.04,0 11.92,-3.96 11.92,-8.8 0,-3.88 -2.72,-5.24 -5.56,-5.76 z m -2.36,-10 c 2.48,0 4.68,0.6 4.68,3.28 0,3.8 -2.92,5.4 -6.24,5.4 h -4.04 l 1.2,-8.68 z m -3.84,21.52 h -3.56 l 1.4,-9.92 h 4.56 c 3,0 5.44,0.92 5.44,4.08 0,3.32 -1.64,5.84 -7.84,5.84 z"
         style="font-style:italic;font-family:'Fira Sans';-inkscape-font-specification:'Fira Sans Italic';fill:#ffffff;fill-opacity:1;stroke:#000000;stroke-width:5.33333333;stroke-miterlimit:4;stroke-dasharray:none;stroke-opacity:1;paint-order:stroke fill markers"
         id="path45599" />
      <path
         d="m 354.71904,85.013844 c 8.28,0 10.88,-8.24 10.88,-13.32 0,-5.36 -2.8,-8.72 -8.04,-8.72 -8.24,0 -10.92,8.12 -10.92,13.32 0,5.36 2.84,8.72 8.08,8.72 z m 0.12,-2.96 c -2.84,0 -4.36,-1.68 -4.36,-5.36 0,-4.04 1.48,-10.76 6.96,-10.76 2.8,0 4.32,1.68 4.32,5.36 0,4.04 -1.44,10.76 -6.92,10.76 z"
         style="font-style:italic;font-family:'Fira Sans';-inkscape-font-specification:'Fira Sans Italic';fill:#ffffff;fill-opacity:1;stroke:#000000;stroke-width:5.33333333;stroke-miterlimit:4;stroke-dasharray:none;stroke-opacity:1;paint-order:stroke fill markers"
         id="path45601" />
      <path
         d="m 386.95894,63.453844 h -4.24 l -5.52,7.8 -3.36,-7.8 h -4.04 l 5,9.76 -8.84,11.32 h 4.28 l 6.44,-8.88 4,8.88 h 4.08 l -5.64,-11 z"
         style="font-style:italic;font-family:'Fira Sans';-inkscape-font-specification:'Fira Sans Italic';fill:#ffffff;fill-opacity:1;stroke:#000000;stroke-width:5.33333333;stroke-miterlimit:4;stroke-dasharray:none;stroke-opacity:1;paint-order:stroke fill markers"
         id="path45603" />
    </g>
  </g>
</svg>
